<svg xmlns="http://www.w3.org/2000/svg" version="1.1" xmlns:xlink="http://www.w3.org/1999/xlink" xmlns:svgjs="http://svgjs.dev/svgjs" viewBox="0 0 800 800" opacity="0.53"><defs><linearGradient x1="50%" y1="0%" x2="50%" y2="100%" id="nnneon-grad"><stop stop-color="hsl(157, 100%, 54%)" stop-opacity="1" offset="0%"></stop><stop stop-color="hsl(331, 87%, 61%)" stop-opacity="1" offset="100%"></stop></linearGradient><filter id="nnneon-filter" x="-100%" y="-100%" width="400%" height="400%" filterUnits="objectBoundingBox" primitiveUnits="userSpaceOnUse" color-interpolation-filters="sRGB">
	<feGaussianBlur stdDeviation="17 8" x="0%" y="0%" width="100%" height="100%" in="SourceGraphic" edgeMode="none" result="blur"></feGaussianBlur></filter><filter id="nnneon-filter2" x="-100%" y="-100%" width="400%" height="400%" filterUnits="objectBoundingBox" primitiveUnits="userSpaceOnUse" color-interpolation-filters="sRGB">
	<feGaussianBlur stdDeviation="10 17" x="0%" y="0%" width="100%" height="100%" in="SourceGraphic" edgeMode="none" result="blur"></feGaussianBlur></filter></defs><g stroke-width="16" stroke="url(#nnneon-grad)" fill="none"><path d="M400 259.1267395019531L522.0000077957213 329.5633741296713V470.4366433851075L400 540.8732780128257L277.9999922042787 470.4366433851075V329.5633741296713L400 259.1267395019531Z " filter="url(#nnneon-filter)"></path><path d="M412 259.1267395019531L534.0000077957213 329.5633741296713V470.4366433851075L412 540.8732780128257L289.9999922042787 470.4366433851075V329.5633741296713L412 259.1267395019531Z " filter="url(#nnneon-filter2)" opacity="0.25"></path><path d="M388 259.1267395019531L510.00000779572133 329.5633741296713V470.4366433851075L388 540.8732780128257L265.9999922042787 470.4366433851075V329.5633741296713L388 259.1267395019531Z " filter="url(#nnneon-filter2)" opacity="0.25"></path><path d="M400 259.1267395019531L522.0000077957213 329.5633741296713V470.4366433851075L400 540.8732780128257L277.9999922042787 470.4366433851075V329.5633741296713L400 259.1267395019531Z "></path></g></svg>