<svg xmlns="http://www.w3.org/2000/svg" version="1.1" xmlns:xlink="http://www.w3.org/1999/xlink" xmlns:svgjs="http://svgjs.dev/svgjs" viewBox="0 0 800 800"><defs><linearGradient x1="50%" y1="0%" x2="50%" y2="100%" id="wwwhirl-grad"><stop stop-color="hsl(206, 75%, 49%)" stop-opacity="1" offset="45%"></stop><stop stop-color="hsl(331, 90%, 56%)" stop-opacity="1" offset="100%"></stop></linearGradient></defs><g stroke-width="2" stroke="url(#wwwhirl-grad)" fill="none" stroke-linecap="round"><path d="M37.00000251770027 444.0550021392823C50.75000289917 426.3175016471863 75.50000358581553 362.4212498744965 103.000004348755 358.9149997772217C130.50000511169446 355.4087496799469 141.5000054168703 427.4312516780854 169.00000617980973 427.22500167236336C196.5000069427492 427.01875166664126 207.50000724792503 358.9562497783661 235.00000801086446 357.92499974975584C262.500008773804 356.89374972114564 273.5000090789798 418.35625142631534 301.0000098419193 422.2750015350342C328.50001060485874 426.1937516437531 339.5000109100345 374.87875022010803 367.000011672974 376.73500027160645C394.50001243591345 378.5912503231049 405.5000127410893 429.9475017478943 433.0000135040287 431.1850017822266C460.5000142669682 432.4225018165589 471.50001457214404 382.05625041923525 499.0000153350834 382.6750004364014C526.5000160980228 383.2937504535675 537.5000164031987 436.63000193328867 565.0000171661382 434.15500186462407C592.5000179290777 431.6800017959595 603.5000182342535 369.7637500782013 631.000018997193 370.79500010681153C658.5000197601325 371.8262501354218 669.5000200653083 442.1987520877839 697.0000208282477 439.1050020019532C724.5000215911871 436.0112519161225 749.2500222778326 373.27000017547607 763.0000226593024 355.9449996948242 " transform="rotate(99, 400, 400)"></path><path d="M48.00000244140632 442.72000114968046C61.33333614464971 425.5200006724965 85.3333368104878 363.5599989535245 112.00000421697456 360.15999885919746C138.6666716234613 356.7599987648704 149.33333858605602 426.6000007024592 176.00000599254278 426.4000006969105C202.66667339902952 426.2000006913619 213.33334036162427 360.1999988603072 240.000007768111 359.1999988325639C266.6666751745978 358.19999880482067 277.3333421371925 417.8000004583186 304.00000954367925 421.6000005637429C330.66667695016605 425.4000006691673 341.3333439127607 375.63999928866303 368.00001131924745 377.43999933860084C394.66667872573424 379.2399993885387 405.33334568832896 429.04000077015274 432.00001309481576 430.2400008034447C458.66668050130244 431.44000083673654 469.3333474638972 382.5999994817561 496.0000148703839 383.199999498402C522.6666822768707 383.79999951504794 533.3333492394653 435.52000094992906 560.0000166459522 433.1200008833452C586.666684052439 430.7200008167614 597.3333510150337 370.67999915105645 624.0000184215204 371.67999917879973C650.6666858280073 372.67999920654296 661.3333527906019 440.9200010997426 688.0000201970887 437.92000101651286C714.6666876035754 434.92000093328306 738.6666882694134 374.07999924538353 752.0000219726569 357.2799987792969 " transform="rotate(96, 400, 400)"></path><path d="M59.00000236511238 441.3850001600786C71.9166693901294 424.72249969780665 95.16667003516005 364.69874803255254 121.00000408519412 361.4049979411732C146.83333813522813 358.11124784979387 157.1666717552418 425.76874972683305 183.0000058052758 425.5749997214578C208.83333985530987 425.3812497160825 219.1666734753235 361.44374794224825 245.00000752535757 360.474997915372C270.8333415753916 359.5062478884957 281.1666751954052 417.2437494903218 307.0000092454393 420.9249995924517C332.83334329547336 424.6062496945815 343.16667691548696 376.401248357218 369.00001096552097 378.1449984055953C394.83334501555504 379.8887484539726 405.1666786355687 428.1324997924112 431.0000126856027 429.2949998246627C456.8333467356368 430.45749985691424 467.16668035565044 383.1437485442769 493.0000144056845 383.72499856040264C518.8333484557185 384.3062485765284 529.1666820757321 434.40999996656944 555.0000161257661 432.0849999020664C580.8333501758003 429.7599998375633 591.1666837958139 371.59624822391163 617.000017845848 372.56499825078794C642.8333518958821 373.5337482776642 653.1666855158957 439.6412501117013 679.0000195659296 436.7350000310725C704.8333536159636 433.8287499504437 728.0833542609943 374.889998315291 741.0000212860114 358.61499786376953 " transform="rotate(93, 400, 400)"></path><path d="M70.00000228881842 440.0499991704768C82.50000263560909 423.9249987231168 105.00000325983231 365.8374971115806 130.00000395341365 362.64999702314896C155.00000464699497 359.46249693471736 165.00000492442751 424.9374987512069 190.00000561800886 424.749998746005C215.0000063115902 424.56249874080316 225.00000658902275 362.6874970241893 250.00000728260406 361.74999699818005C275.00000797618543 360.8124969721707 285.000008253618 416.68749852232503 310.0000089471993 420.2499986211604C335.00000964078066 423.8124987199957 345.00000991821315 377.1624974257729 370.0000106117945 378.8499974725897C395.00001130537584 380.53749751940643 405.0000115828084 427.22499881466956 430.0000122763897 428.34999884588075C455.000012969971 429.4749988770919 465.0000132474036 383.68749760679765 490.00001394098496 384.24999762240327C515.0000146345662 384.81249763800884 525.0000149119987 433.29999898320983 550.0000156055801 431.0499989207875C575.0000162991615 428.7999988583652 585.000016576594 372.5124972967668 610.0000172701755 373.4499973227761C635.0000179637568 374.3874973487854 645.0000182411893 438.3624991236601 670.0000189347705 435.54999904563215C695.0000196283519 432.73749896760427 717.5000202525752 375.69999738519846 730.0000205993658 359.9499969482422 " transform="rotate(90, 400, 400)"></path><path d="M81.00000221252448 438.71500199557227C93.08333588108879 423.12750156312427 114.83333648450457 366.97625000530593 139.0000038216332 363.894999919822C163.1666711587618 360.8137498343381 172.83333809361326 424.10625159027796 197.0000054307419 423.9250015852495C221.16667276787052 423.74375158022104 230.833339702722 363.93124992082767 255.00000703985063 363.02499989568537C279.16667437697924 362.11874987054307 288.83334131183074 416.13125136902556 313.00000864895935 419.57500146456636C337.16667598608797 423.0187515601072 346.8333429209394 377.9237503090252 371.000010258068 379.55500035428133C395.16667759519663 381.1862503995375 404.8333445300481 426.31750165162526 429.00001186717674 427.405001681796C453.16667920430535 428.49250171196684 462.8333461391569 384.23125048401573 487.00001347628546 384.7750004991011C511.1666808134141 385.31875051418655 520.8333477482655 432.1900018145475 545.0000150853941 430.0150017542059C569.1666824225229 427.84000169386434 578.8333493573742 373.42875018431926 603.000016694503 374.33500020946155C627.1666840316316 375.2412502346039 636.8333509664831 437.08375195031607 661.0000183036116 434.36500187488906C685.1666856407402 431.6462517994621 706.9166862441559 376.51000026980313 719.0000199127203 361.2849998474121 " transform="rotate(87, 400, 400)"></path><path d="M92.00000213623053 437.38000100597037C103.6666691265685 422.3300005884344 124.66666970917683 368.11499908433393 148.00000368985275 365.1399990017978C171.33333767052864 362.16499891926156 180.666671262799 423.2750006146518 204.00000524347493 423.1000006097967C227.33333922415085 422.92500060494166 236.66667281642125 365.1749990027688 260.00000679709717 364.2999989784934C283.33334077777306 363.4249989542181 292.66667437004344 415.5750004010288 316.0000083507193 418.90000049327506C339.3333423313953 422.2250005855214 348.66667592366565 378.68499937758014 372.00000990434154 380.2599994212758C395.3333438850174 381.83499946497136 404.6666774772878 425.41000067388364 428.00001145796375 426.4600007030141C451.3333454386397 427.5100007321445 460.6666790309101 384.77499954653655 484.000013011586 385.29999956110174C507.33334699226185 385.82499957566694 516.6666805845323 431.08000083118793 540.0000145652082 428.98000077292704C563.3333485458841 426.88000071466627 572.6666821381544 374.34499925717444 596.0000161188304 375.21999928144976C619.3333500995063 376.0949993057251 628.6666836917767 435.8050009622748 652.0000176724526 433.1800008894487C675.3333516531285 430.5550008166227 696.3333522357368 377.3199993397106 708.0000192260748 362.61999893188477 " transform="rotate(84, 400, 400)"></path><path d="M103.00000205993659 436.04500383106586C114.25000237204819 421.5325034284419 134.5000029338491 369.25375197805926 157.00000355807228 366.3850018984708C179.50000418229547 363.5162518188823 188.5000044319848 422.44375345372293 211.00000505620795 422.27500344904126C233.50000568043117 422.10625344435954 242.50000593012047 366.41875189940714 265.0000065543437 365.57500187599874C287.5000071785669 364.7312518525904 296.5000074282562 415.01875324772925 319.0000080524794 418.2250033366811C341.5000086767026 421.43125342563286 350.50000892639184 379.44625226083235 373.00000955061506 380.96500230296743C395.5000101748383 382.4837523451025 404.5000104245276 424.50250351083935 427.00001104875076 425.51500353892936C449.500011672974 426.52750356701944 458.5000119226633 385.31875242375463 481.00001254688647 385.82500243779964C503.50001317110963 386.33125245184465 512.5000134207988 429.9700036625256 535.0000140450221 427.9450036063455C557.5000146692455 425.9200035501654 566.5000149189347 375.2612521447268 589.0000155431579 376.10500216813523C611.5000161673811 376.9487521915436 620.5000164170704 434.5262537889308 643.0000170412935 431.9950037187057C665.5000176655168 429.4637536484805 685.7500182273176 378.1300022243153 697.0000185394292 363.9550018310547 " transform="rotate(81, 400, 400)"></path><path d="M114.00000198364263 434.710002841464C124.83333561752788 420.73500245375203 144.33333615852135 370.3925010570873 166.0000034262918 367.63000098044654C187.6666706940623 364.8675009038058 196.3333376011705 421.61250247809676 218.000004868941 421.4500024735885C239.6666721367115 421.2875024690802 248.3333390438197 367.6625009813482 270.0000063115902 366.85000095880685C291.6666735793607 366.0375009362654 300.33334048646896 414.46250227973246 322.0000077542394 417.5500023653898C343.6666750220099 420.63750245104706 352.3333419291181 380.20750132938736 374.0000091968886 381.6700013699618C395.6666764646591 383.13250141053635 404.3333433717673 423.5950025330977 426.0000106395378 424.57000256014743C447.66667790730827 425.5450025871971 456.3333448144165 385.86250148627545 478.00001208218697 386.35000149980027C499.66667934995746 386.8375015133251 508.33334625706556 428.860002679166 530.0000135248362 426.9100026250666C551.6666807926067 424.9600025709673 560.3333476997147 376.177501217582 582.0000149674854 376.99000124012343C603.6666822352558 377.8025012626648 612.3333491423641 433.2475028008895 634.0000164101345 430.8100027332653C655.666683677905 428.37250266564115 675.1666842188985 378.9400012942227 686.0000178527837 365.29000091552734 " transform="rotate(78, 400, 400)"></path><path d="M125.00000190734869 433.3750018518622C135.41666886300757 419.93750147906223 154.1666693831936 371.5312501361153 175.00000329451137 368.8750000624223C195.83333720582914 366.2187499887293 204.16667077035626 420.7812515024706 225.00000468167406 420.6250014981357C245.83333859299182 420.4687514938008 254.16667215751897 368.9062500632893 275.00000606883674 368.1250000416149C295.8333399801545 367.34375001994044 304.16667354468166 413.90625131173573 325.0000074559994 416.8750013940985C345.8333413673172 419.84375147646125 354.16667493184434 380.9687503979423 375.00000884316205 382.37500043695627C395.8333427544799 383.7812504759702 404.166676319007 422.68750155535616 425.0000102303248 423.62500158136544C445.83334414164256 424.56250160737477 454.1666777061697 386.40625054879627 475.0000116174875 386.8750005618009C495.83334552880524 387.34375057480554 504.1666790933323 427.75000169580636 525.0000130046501 425.87500164378775C545.8333469159679 424.0000015917692 554.166680480495 377.0937502904372 575.0000143918128 377.8750003121116C595.8333483031306 378.65625033378603 604.1666818676579 431.9687518128482 625.0000157789755 429.62500174782497C645.8333496902933 427.2812516828017 664.5833502104794 379.7500003641302 675.0000171661382 366.625 " transform="rotate(75, 400, 400)"></path><path d="M136.00000183105476 432.04000086226034C146.00000210848728 419.1400005043724 164.00000260786584 372.6699992151434 184.00000316273093 370.1199991443981C204.00000371759597 367.5699990736528 212.000003939542 419.9500005268444 232.00000449440708 419.8000005226829C252.00000504927215 419.65000051852144 260.0000052712182 370.14999914523037 280.0000058260833 369.39999912442295C300.0000063809483 368.6499991036155 308.00000660289436 413.35000034373894 328.00000715775946 416.2000004228072C348.00000771262455 419.0500005018755 356.00000793457053 381.72999946649725 376.0000084894356 383.07999950395066C396.00000904430067 384.4299995414041 404.0000092662467 421.78000057761454 424.0000098211118 422.6800006025835C444.0000103759769 423.5800006275524 452.0000105979229 386.949999611317 472.000011152788 387.3999996238015C492.000011707653 387.849999636286 500.00001192959905 426.64000071244675 520.0000124844642 424.84000066250894C540.0000130393292 423.0400006125711 548.0000132612753 378.00999936329237 568.0000138161404 378.7599993840998C588.0000143710055 379.50999940490726 596.0000145929514 430.69000082480693 616.0000151478165 428.4400007623846C636.0000157026815 426.1900006999623 654.00001620206 380.55999943403765 664.0000164794926 367.95999908447266 " transform="rotate(72, 400, 400)"></path><path d="M146.9999864959717 430.7049998726585C156.5833200951779 418.3424995296825 173.83332057374906 373.80874829417144 192.9999877721614 371.36499822637387C212.16665497057375 368.9212481585763 219.8333218499387 419.11874955121823 238.99998904835104 418.97499954723014C258.1666562467634 418.83124954324205 265.8333231261284 371.39374822717144 284.9999903245407 370.674998207231C304.1666575229531 369.95624818729056 311.83332440231806 412.79374937574215 330.9999916007304 415.5249994515159C350.1666587991428 418.2562495272897 357.83332567850766 382.49124853505225 376.99999287692003 383.78499857094505C396.1666600753324 385.0787486068379 403.8333269546974 420.872499599873 422.99999415310975 421.7349996238015C442.1666613515221 422.5974996477301 449.83332823088705 387.49374867383784 468.9999954292994 387.9249986858021C488.16666262771173 388.35624869776643 495.83332950707666 425.5299997290872 514.9999967054891 423.8049996812301C534.1666639039015 422.07999963337295 541.8333307832664 378.92624843614755 560.9999979816788 379.644998456088C580.1666651800912 380.36374847602843 587.8333320594561 429.4112498367657 606.9999992578685 427.25499977694426C626.1666664562807 425.09874971712287 643.4166669348518 381.3699985039451 653.000000534058 369.2949981689453 " transform="rotate(69, 400, 400)"></path><path d="M157.99998641967778 429.3700007904053C167.1666533406576 417.54500046234136 183.6666537984213 374.9474992805481 201.99998764038094 372.6099992156982C220.33332148234058 370.2724991508484 227.66665501912445 418.2875004829407 245.9999888610841 418.150000479126C264.33332270304373 418.0125004753113 271.6666562398276 372.63749921646115 289.99999008178725 371.9499991973877C308.3333239237469 371.2624991783142 315.6666574605308 412.23750031509405 333.99999130249046 414.8500003875733C352.3333251444501 417.4625004600525 359.6666586812339 383.25249951095583 377.99999252319355 384.4899995452881C396.3333263651532 385.72749957962037 403.6666599019371 419.96500052948 421.99999374389677 420.7900005523682C440.3333275858564 421.6150005752564 447.6666611226403 388.0374996437073 465.9999949645999 388.4499996551514C484.3333288065595 388.86249966659545 491.6666623433434 424.4200006530762 509.9999961853031 422.77000060729983C528.3333300272627 421.12000056152345 535.6666635640465 379.8424994163513 553.9999974060063 380.5299994354248C572.3333312479659 381.2174994544983 579.6666647847499 428.13250075607306 597.9999986267094 426.0700006988526C616.3333324686689 424.00750064163213 632.8333329264326 382.1799994812012 641.9999998474125 370.6299991607666 " transform="rotate(66, 400, 400)"></path><path d="M168.99998634338385 428.0350017081521C177.7499865861373 416.74750139500014 193.49998702309355 376.08625026692476 210.9999875086005 373.85500020502263C228.4999879941074 371.6237501431205 235.49998818831023 417.4562514146632 252.99998867381714 417.32500141102184C270.49998915932406 417.19375140738055 277.49998935352687 373.8812502057509 294.9999898390338 373.22500018754437C312.4999903245407 372.5687501693379 319.4999905187435 411.6812512544459 336.99999100425043 414.1750013236306C354.49999148975735 416.66875139281535 361.49999168396016 384.0137504868594 378.9999921694671 385.19500051963115C396.49999265497405 386.37625055240284 403.4999928491768 419.05750145908706 420.9999933346837 419.84500148093485C438.4999938201907 420.6325015027827 445.4999940143935 388.58125061357674 462.9999944999004 388.97500062450064C480.4999949854073 389.36875063542453 487.4999951796101 423.31000157706524 504.99999566511707 421.73500153336965C522.4999961506239 420.16000148967396 529.4999963448267 380.7587503965551 546.9999968303338 381.4150004147616C564.4999973158407 382.07125043296816 571.4999975100434 426.8537516753804 588.9999979955503 424.8850016207609C606.4999984810572 422.91625156614134 622.2499989180135 382.99000045845725 630.999999160767 371.9650001525879 " transform="rotate(63, 400, 400)"></path><path d="M179.9999862670899 426.7000007185503C188.33331983161702 415.9500004203103 203.3333202477658 377.2249993459528 219.99998737682003 375.0999992869984C236.66665450587425 372.974999228044 243.33332135749595 416.625000439037 259.9999884865502 416.5000004355691C276.6666556156044 416.37500043210116 283.33332246722614 375.124999287692 299.99998959628033 374.4999992703525C316.6666567253345 373.8749992530129 323.3333235769563 411.1250002864491 339.9999907060105 413.5000003523393C356.6666578350647 415.87500041822955 363.3333246866864 384.7749995554144 379.9999918157406 385.89999958662554C396.6666589447948 387.0249996178367 403.33332579641655 418.15000048134544 419.9999929254708 418.9000005021529C436.666660054525 419.65000052296034 443.3333269061467 389.12499967609756 459.9999940352009 389.49999968650127C476.6666611642551 389.874999696905 483.33332801587676 422.2000005937056 499.99999514493106 420.7000005520908C516.6666622739854 419.2000005104759 523.333329125607 381.6749994694103 539.9999962546613 382.2999994867498C556.6666633837156 382.9249995040894 563.3333302353371 425.5750006873391 579.9999973643913 423.7000006353205C596.6666644934455 421.8250005833019 611.6666649095944 383.7999995283647 619.9999984741214 373.29999923706055 " transform="rotate(60, 400, 400)"></path><path d="M190.99998619079594 425.3649997289484C198.9166530770967 415.1524994456205 213.16665347243807 378.3637484249808 228.99998724503956 376.3449983689742C244.83332101764108 374.3262483129675 251.1666545266817 415.79374946341085 266.99998829928325 415.67499946011634C282.8333220718847 415.55624945682183 289.16665558092535 376.36874836963307 304.99998935352687 375.7749983531605C320.83332312612833 375.181248336688 327.166656635169 410.5687493184523 342.9999904077705 412.82499938104803C358.833324180372 415.08124944364374 365.1666576894126 385.53624862396936 380.9999914620141 386.60499865361993C396.8333252346156 387.67374868327056 403.1666587436563 417.2424995036039 418.99999251625775 417.95499952337093C434.83332628885927 418.66749954313804 441.1666597978999 389.6687487386183 456.99999357050143 390.0249987485019C472.8333273431029 390.3812487583854 479.1666608521435 421.08999961034607 494.99999462474506 419.6649995708119C510.8333283973466 418.23999953127776 517.1666619063872 382.5912485422655 532.9999956789886 383.184998558738C548.8333294515903 383.77874857521056 555.1666629606309 424.29624969929785 570.9999967332324 422.51499964988017C586.8333305058338 420.7337496004625 601.0833309011753 384.60999859827217 608.9999977874759 374.6349983215332 " transform="rotate(57, 400, 400)"></path><path d="M201.999986114502 424.03000064669527C209.49998632257638 414.35500037827927 222.99998669711033 379.5024994113575 237.99998711325912 377.58999935829854C252.99998752940792 375.6774993052396 258.99998769586745 414.9625003951333 273.99998811201624 414.8500003920122C288.9999885281651 414.7375003888911 294.99998869462456 377.6124993589228 309.9999891107734 377.0499993433172C324.9999895269222 376.48749932771165 330.99998969338174 410.0125002578042 345.99999010953053 412.1500003171054C360.9999905256793 414.2875003764066 366.9999906921388 386.29749959987294 381.99999110828765 387.309999627963C396.99999152443644 388.322499656053 402.99999169089597 416.3350004332109 417.99999210704476 417.01000045193763C432.99999252319355 417.6850004706643 438.99999268965314 390.21249970848777 453.99999310580193 390.5499997178511C468.9999935219507 390.8874997272145 474.9999936884102 419.9800005343351 489.99999410455905 418.6300004968817C504.9999945207079 417.28000045942827 510.9999946871674 383.5074995224693 525.9999951033162 384.06999953807485C540.9999955194651 384.6324995536804 546.9999956859245 423.0175006186052 561.9999961020733 421.33000057178845C576.9999965182221 419.64250052497175 590.499996892756 385.4199995755282 597.9999971008303 375.9699993133545 " transform="rotate(54, 400, 400)"></path><path d="M212.99998603820805 422.69500156444207C220.08331956805608 413.55750131093805 232.8333199217826 380.6412503977342 246.99998698147868 378.83500034762295C261.16665404117475 377.0287502975117 266.8333208650532 414.13125132685576 280.9999879247493 414.02500132390804C295.16665498444536 413.9187513209603 300.83332180832383 378.8562503482125 314.99998886801995 378.3250003334739C329.166655927716 377.7937503187353 334.83332275159444 409.45625119715606 348.99998981129056 411.47500125316276C363.1666568709866 413.49375130916945 368.83332369486504 387.05875057577657 382.99999075456117 388.01500060230603C397.16665781425723 388.9712506288355 402.8333246381357 415.42750136281796 416.9999916978318 416.06500138050427C431.1666587575279 416.70250139819063 436.8333255814063 390.7562506783572 450.99999264110244 391.0750006872004C465.1666597007985 391.3937506960435 470.8333265246769 418.8700014583241 484.99999358437304 417.59500142295144C499.16666064406917 416.3200013875788 504.8333274679476 384.42375050267304 518.9999945276437 384.9550005174117C533.1666615873398 385.4862505321503 538.8333284112182 421.73875153791255 552.9999954709143 420.1450014936968C567.1666625306103 418.55125144948096 579.9166628843368 386.2300005527843 586.9999964141849 377.3050003051758 " transform="rotate(51, 400, 400)"></path><path d="M223.9999859619141 421.3600005748402C230.6666528135358 412.76000033624825 242.66665314645485 381.77999947676227 255.99998684969822 380.07999942959873C269.3333205529416 378.3799993824352 274.66665403423895 413.3000003512296 287.99998773748234 413.20000034845526C301.3333214407257 413.10000034568094 306.6666549220231 380.0999994301536 319.99998862526644 379.59999941628195C333.33332232850984 379.09999940241033 338.6666558098072 408.9000002291593 351.99998951305054 410.80000028187146C365.33332321629393 412.70000033458365 370.6666566975913 387.8199996443315 383.9999904008347 388.7199996693004C397.3333241040781 389.6199996942694 402.66665758537545 414.5200003850764 415.99999128861884 415.12000040172234C429.3333249918621 415.7200004183683 434.66665847315954 391.29999974087804 447.9999921764029 391.599999749201C461.3333258796463 391.899999757524 466.6666593609436 417.7600004749645 479.99999306418704 416.5600004416726C493.33332676743044 415.3600004083807 498.6666602487278 385.3399995755282 511.99999395197113 385.83999958939984C525.3333276552146 386.3399996032715 530.666661136512 420.4600005498713 543.9999948397553 418.9600005082564C557.3333285429986 417.46000046664153 569.3333288759177 387.03999962269177 575.9999957275394 378.63999938964844 " transform="rotate(48, 400, 400)"></path><path d="M234.99998588562016 420.0249995852384C241.2499860590155 411.9624993615584 252.49998637112708 382.9187485557903 264.99998671791775 381.3249985115745C277.4999870647084 379.7312484673587 282.49998720342467 412.46874937560347 294.99998755021534 412.37499937300254C307.499987897006 412.28124937040155 312.4999880357223 381.3437485120947 324.999988382513 380.87499849909C337.49998872930365 380.40624848608536 342.49998886801995 408.34374926116254 354.9999892148106 410.12499931058017C367.4999895616013 411.90624935999784 372.49998970031754 388.58124871288646 384.9999900471082 389.4249987362948C397.4999903938989 390.2687487597032 402.49999053261513 413.6124994073348 414.9999908794058 414.17499942294035C427.49999122619647 414.73749943854597 432.4999913649127 391.84374880339885 444.9999917117034 392.12499881120164C457.49999205849406 392.4062488190044 462.4999921972103 416.64999949160494 474.999992544001 415.52499946039376C487.4999928907917 414.39999942918257 492.49999302950795 386.2562486483834 504.9999933762987 386.72499866138804C517.4999937230893 387.1937486743927 522.4999938618056 419.18124956183004 534.9999942085963 417.7749995228161C547.4999945553868 416.3687494838021 558.7499948674986 387.84999869259923 564.9999950408939 379.9749984741211 " transform="rotate(45, 400, 400)"></path><path d="M245.9999858093262 418.6900005029852C251.83331930449518 411.16500029421724 262.33331959579937 384.05749954216697 273.9999865861373 382.56999950089886C285.66665357647526 381.0824994596308 290.33332037261044 411.6375003073259 301.9999873629484 411.5500003048984C313.6666543532864 411.46250030247086 318.3333211494216 382.5874995013844 329.9999881397595 382.14999948924674C341.66665513009747 381.712499477109 346.33332192623266 407.7875002005144 357.9999889165706 409.45000024663756C369.66665590690855 411.11250029276067 374.3333227030438 389.34249968879004 385.99998969338174 390.1299997106379C397.6666566837197 390.9174997324857 402.3333234798548 412.70500033694185 413.9999904701928 413.23000035150704C425.6666574605308 413.75500036607224 430.33332425666595 392.38749977326825 441.99999124700395 392.6499997805509C453.66665823734184 392.9124997878335 458.3333250334771 415.54000041559397 469.999992023815 414.4900003864635C481.66665901415297 413.44000035733313 486.33332581028816 387.1724996285872 497.99999280062616 387.6099996407249C509.6666597909641 388.04749965286254 514.3333265870992 417.9025004811374 525.9999935774372 416.59000044472435C537.6666605677751 415.27750040831137 548.1666608590793 388.6599996698553 553.9999943542483 381.3099994659424 " transform="rotate(42, 400, 400)"></path><path d="M256.99998573303225 417.355001420732C262.41665254997486 410.367501226876 272.1666528204716 385.19625052854366 282.9999864543569 383.81500049022327C293.8333200882421 382.43375045190294 298.1666535417962 410.8062512390484 308.99998717568144 410.72500123679424C319.83332080956666 410.6437512345401 324.1666542631208 383.8312504906741 334.999987897006 383.4250004794034C345.8333215308913 383.01875046813274 350.1666549844454 407.23125113986623 360.99998861833063 408.7750011826949C371.8333222522159 410.31875122552356 376.16665570577 390.1037506646937 386.99998933965526 390.8350006849809C397.8333229735405 391.5662507052682 402.1666564270946 411.79750126654886 412.9999900609798 412.2850012800737C423.83332369486504 412.77250129359857 428.1666571484192 392.9312507431377 438.9999907823044 393.1750007499001C449.83332441618967 393.4187507566626 454.16665786974374 414.430001339583 464.999991503629 413.45500131253334C475.8333251375143 412.48000128548364 480.1666585910683 388.08875060879103 490.99999222495364 388.4950006200617C501.83332585883886 388.9012506313324 506.166659312393 416.62375140044475 516.9999929462782 415.40500136663263C527.8333265801634 414.1862513328206 537.5833268506601 389.47000064711136 542.9999936676028 382.6450004577637 " transform="rotate(39, 400, 400)"></path><path d="M267.9999856567383 416.02000043113014C272.99998579545456 409.57000025218616 281.9999860451438 386.3349996075717 291.99998632257643 385.05999957219905C301.9999866000089 383.7849995368264 305.99998671098194 409.9750002634222 315.9999869884145 409.90000026134146C325.99998726584704 409.8250002592607 329.99998737682006 385.0749995726152 339.99998765425255 384.6999995622115C349.9999879316851 384.32499955180776 353.9999880426581 406.67500017186944 363.99998832009067 408.1000002114036C373.9999885975232 409.52500025093775 377.9999887084962 390.8649997332486 387.9999889859287 391.5399997519753C397.9999892633613 392.21499977070204 401.9999893743343 410.8900002888073 411.99998965176684 411.34000030129175C421.9999899291994 411.7900003137762 425.9999900401724 393.4749998056585 435.9999903176049 393.69999981190074C445.99999059503745 393.92499981814296 449.99999070601046 413.3200003562234 459.999990983443 412.42000033125447C469.99999126087556 411.5200003062855 473.9999913718486 389.00499968164615 483.9999916492811 389.3799996920499C493.9999919267137 389.75499970245363 497.99999203768664 415.34500041240346 507.9999923151192 414.22000038119234C517.9999925925517 413.09500034998115 526.999992842241 390.2799997170188 531.9999929809572 383.9799995422363 " transform="rotate(36, 400, 400)"></path><path d="M279.0000008392334 414.6850003952027C283.58333429972333 408.7725002311707 291.8333345286052 387.47374964027404 301.000001449585 386.30499960784914C310.1666683705648 385.1362495754242 313.8333351389567 409.14375024147034 323.0000020599366 409.075000239563C332.16666898091637 409.00625023765565 335.83333574930833 386.3187496082306 345.00000267028815 385.97499959869384C354.166669591268 385.6312495891571 357.83333635965994 406.118750157547 367.00000328063976 407.4250001937866C376.1666702016196 408.73125023002626 379.8333369700115 391.6262497554779 389.0000038909913 392.24499977264406C398.16667081197113 392.8637497898102 401.8333375803631 409.98250026474 411.0000045013429 410.3950002761841C420.16667142232274 410.8075002876282 423.8333381907147 394.01874982185365 433.00000511169446 394.2249998275757C442.1666720326743 394.4312498332977 445.83333880106625 412.2100003265381 455.00000572204607 411.3850003036499C464.1666726430259 410.56000028076176 467.8333394114178 389.92124970817565 477.0000063323977 390.2649997177124C486.1666732533775 390.6087497272491 489.83334002176946 414.0662503780365 499.0000069427492 413.0350003494263C508.166673863729 412.00375032081604 516.4166740926108 391.0899997406006 521.0000075531008 385.3149995803833 " transform="rotate(33, 400, 400)"></path><path d="M290.00000076293946 413.35000035927516C294.16666754520304 407.97500021015514 301.66666775327747 388.6124996729764 310.00000131780456 387.5499996434992C318.33333488233166 386.487499614022 321.6666683081425 408.3125002195185 330.0000018726696 408.25000021778453C338.33333543719675 408.1875002160506 341.6666688630076 387.56249964384597 350.0000024275347 387.2499996351762C358.3333359920618 386.93749962650645 361.66666941787264 405.56250014322455 370.0000029823998 406.7500001761697C378.3333365469269 407.9375002091148 381.66666997273774 392.3874997777072 390.00000353726483 392.94999979331277C398.3333371017919 393.51249980891834 401.66667052760283 409.07500024067275 410.0000040921299 409.45000025107646C418.333337656657 409.82500026148017 421.6666710824679 394.5624998380488 430.00000464699497 394.74999984325063C438.3333382115221 394.9374998484525 441.6666716373329 411.10000029685284 450.00000520186006 410.35000027604536C458.3333387663872 409.60000025523794 461.666672192198 390.83749973470515 470.00000575672516 391.1499997433749C478.3333393212523 391.46249975204466 481.6666727470631 412.78750034366954 490.0000063115902 411.85000031766026C498.3333398761173 410.912500291651 505.8333400841917 391.8999997641823 510.00000686645524 386.6499996185303 " transform="rotate(30, 400, 400)"></path><path d="M301.00000068664554 412.01500032334764C304.75000079068275 407.17750018913966 311.5000009779497 389.7512497056788 319.00000118602406 388.79499967914927C326.5000013940985 387.8387496526198 329.5000014773283 407.4812501975667 337.00000168540265 407.42500019600607C344.5000018934771 407.3687501944455 347.5000019767068 388.8062496794614 355.00000218478124 388.52499967165863C362.50000239285566 388.2437496638558 365.5000024760854 405.0062501289021 373.00000268415977 406.0750001585527C380.5000028922342 407.1437501882033 383.50000297546393 393.14874979993647 391.00000318353835 393.6549998139815C398.5000033916127 394.1612498280265 401.5000034748425 408.16750021660545 409.00000368291694 408.5050002259688C416.5000038909913 408.8425002353322 419.5000039742211 395.1062498542439 427.00000418229547 395.2749998589256C434.5000043903699 395.44374986360725 437.50000447359963 409.99000026716755 445.00000468167406 409.31500024844087C452.5000048897485 408.64000022971413 455.5000049729782 391.75374976123464 463.00000518105264 392.0349997690374C470.50000538912707 392.3162497768402 473.5000054723568 411.5087503093026 481.0000056804312 410.6650002858942C488.5000058885056 409.8212502624859 495.25000607577255 392.7099997877641 499.0000061798097 387.98499965667725 " transform="rotate(27, 400, 400)"></path><path d="M312.00000061035155 410.6800002874201C315.33333403616246 406.3800001681241 321.3333342026219 390.8899997383811 328.0000010542436 390.03999971479936C334.6666679058653 389.1899996912176 337.333334646514 406.6500001756148 344.0000014981357 406.60000017422766C350.6666683497574 406.5500001728405 353.3333350904061 390.0499997150768 360.0000019420278 389.799999708141C366.6666687936495 389.54999970120514 369.33333553429816 404.45000011457967 376.0000023859198 405.40000014093573C382.6666692375415 406.3500001672918 385.3333359781902 393.90999982216573 392.0000028298119 394.35999983465024C398.6666696814336 394.8099998471347 401.33333642208225 407.2600001925382 408.00000327370395 407.56000020086117C414.6666701253256 407.86000020918414 417.3333368659743 395.649999870439 424.000003717596 395.79999987460053C430.6666705692177 395.949999878762 433.33333730986635 408.88000023748225 440.00000416148805 408.2800002208363C446.66667101310975 407.6800002041904 449.3333377537584 392.66999978776414 456.0000046053801 392.91999979469995C462.6666714570018 393.16999980163575 465.3333381976505 410.23000027493566 472.0000050492722 409.4800002541282C478.66667190089385 408.73000023332077 484.6666720673534 393.5199998113459 488.0000054931642 389.3199996948242 " transform="rotate(24, 400, 400)"></path><path d="M323.0000005340576 409.3450002514926C325.9166672816421 405.5825001471086 331.1666674272942 392.0287497710835 337.0000009224632 391.28499975044946C342.83333441763216 390.5412497298154 345.1666678156997 405.81875015366296 351.0000013108687 405.7750001524492C356.8333348060377 405.73125015123543 359.16666820410535 391.2937497506922 365.0000016992743 391.07499974462337C370.8333351944433 390.85624973855454 373.16666859251086 403.8937501002572 379.00000208767983 404.72500012331875C384.8333355828488 405.55625014638036 387.1666689809164 394.67124984439505 393.0000024760854 395.06499985531894C398.83333597125437 395.45874986624284 401.16666936932194 406.3525001684709 407.00000286449097 406.6150001757535C412.83333635965994 406.87750018303615 415.1666697577275 396.1937498866341 421.0000032528965 396.3249998902754C426.83333674806545 396.4562498939167 429.1666701461331 407.77000020779695 435.00000364130204 407.24500019323176C440.833337136471 406.72000017866657 443.16667053453864 393.5862498142936 449.0000040297076 393.80499982036247C454.8333375248766 394.0237498264313 457.16667092294415 408.9512502405687 463.0000044181131 408.2950002223622C468.8333379132821 407.63875020415566 474.0833380589342 394.32999983492766 477.0000048065187 390.6549997329712 " transform="rotate(21, 400, 400)"></path><path d="M334.0000004577637 408.01000021556507C336.5000005271218 404.7850001260931 341.00000065196645 393.16749980378586 346.00000079068275 392.52999978609955C351.000000929399 391.8924997684132 353.0000009848855 404.9875001317111 358.0000011236018 404.95000013067073C363.00000126231805 404.91250012963036 365.00000131780456 392.5374997863076 370.0000014565208 392.34999978110574C375.0000015952371 392.1624997759039 377.00000165072356 403.3375000859347 382.00000178943986 404.0500001057018C387.00000192815617 404.7625001254689 389.0000019836426 395.4324998666243 394.00000212235886 395.76999987598765C399.00000226107517 396.107499885351 401.0000023165617 405.44500014440365 406.0000024552779 405.6700001506459C411.0000025939942 405.8950001568881 413.00000264948073 396.73749990282926 418.000002788197 396.84999990595037C423.0000029269132 396.9624999090715 425.0000029823998 406.6600001781117 430.00000312111604 406.2100001656272C435.0000032598323 405.76000015314276 437.00000331531885 394.5024998408231 442.0000034540351 394.68999984602493C447.00000359275134 394.8774998512268 449.00000364823785 407.67250020620173 454.00000378695415 407.11000019059617C459.0000039256704 406.54750017499055 463.50000405051503 395.13999985850944 466.00000411987315 391.98999977111816 " transform="rotate(18, 400, 400)"></path><path d="M344.99999656677244 406.67500017963755C347.08332995790425 403.9875001050776 350.83333006194147 394.3062498364882 354.99999684420504 393.7749998217496C359.16666362646856 393.243749807011 360.833330339374 404.15625010975924 364.99999712163753 404.12500010889227C369.1666639039011 404.0937501080253 370.8333306168065 393.781249821923 374.9999973990701 393.6249998175881C379.16666418133366 393.4687498132532 380.83333089423905 402.78125007161225 384.99999767650263 403.37500008808485C389.16666445876615 403.9687501045574 390.8333311716716 396.1937498888536 394.9999979539351 396.4749998966564C399.1666647361987 396.7562499044592 400.83333144910415 404.53750012033635 404.9999982313677 404.7250001255382C409.16666501363125 404.9125001307401 410.8333317265367 397.2812499190244 414.9999985088002 397.3749999216253C419.1666652910638 397.46874992422624 420.8333320039692 405.5500001484264 424.99999878623277 405.1750001380227C429.16666556849634 404.800000127619 430.83333228140174 395.4187498673526 434.9999990636653 395.57499987168745C439.1666658459289 395.73124987602233 440.8333325588343 406.39375017183477 444.9999993410978 405.92500015883013C449.1666661233614 405.4562501458255 452.9166662273986 395.94999988209116 454.99999961853035 393.32499980926514 " transform="rotate(15, 400, 400)"></path><path d="M355.9999964904785 405.3400001437101C357.66666320338396 403.19000008406204 360.6666632866137 395.44499986919055 363.99999671242455 395.0199998573997C367.3333301382354 394.5949998456088 368.66666350855974 403.3250000878074 371.9999969343706 403.3000000871138C375.33333036018144 403.2750000864202 376.6666637305058 395.0249998575384 379.9999971563166 394.8999998540705C383.3333305821275 394.77499985060257 384.6666639524518 402.22500005728983 387.9999973782626 402.70000007046787C391.3333308040735 403.1750000836459 392.66666417439785 396.9549999110829 395.99999760020864 397.1799999173251C399.33333102601955 397.40499992356735 400.6666643963439 403.6300000962691 403.9999978221547 403.7800001004306C407.33333124796553 403.93000010459207 408.6666646182899 397.8249999352195 411.9999980441007 397.89999993730027C415.33333146991157 397.974999939381 416.6666648402359 404.4400001187411 419.99999826604676 404.14000011041816C423.3333316918576 403.8400001020952 424.66666506218195 396.33499989388207 427.9999984879928 396.45999989735C431.33333191380365 396.5849999008179 432.666665284128 405.1150001374678 435.99999870993884 404.7400001270641C439.33333213574963 404.3650001166604 442.3333322189794 396.75999990567294 443.9999989318849 394.6599998474121 " transform="rotate(12, 400, 400)"></path><path d="M366.9999964141846 404.00500010778256C368.2499964488636 402.39250006304655 370.499996511286 396.58374990189293 372.9999965806441 396.2649998930498C375.49999665000223 395.9462498842066 376.49999667774546 402.4937500658556 378.99999674710364 402.4750000653354C381.49999681646176 402.4562500648152 382.49999684420504 396.26874989315377 384.9999969135631 396.17499989055284C387.4999969829213 396.0812498879519 388.4999970106645 401.66875004296736 390.9999970800227 402.0250000528509C393.4999971493808 402.38125006273447 394.49999717712404 397.71624993331216 396.99999724648217 397.8849999379938C399.49999731584035 398.0537499426755 400.4999973435836 402.7225000722018 402.9999974129417 402.8350000753229C405.4999974822998 402.947500078444 406.4999975100431 398.36874995141466 408.9999975794012 398.4249999529752C411.49999764875935 398.48124995453577 412.49999767650263 403.33000008905583 414.99999774586075 403.1050000828136C417.4999978152189 402.8800000765714 418.49999784296216 397.25124992041157 420.9999979123203 397.3449999230125C423.4999979816784 397.4387499256134 424.4999980094217 403.8362501031009 426.9999980787798 403.55500009529806C429.49999814813793 403.2737500874953 431.74999821056025 397.5699999292547 432.99999824523934 395.9949998855591 " transform="rotate(9, 400, 400)"></path><path d="M378.0000001525879 402.67000007185504C378.8333335090406 401.595000042031 380.3333335506555 397.7224999345953 382.0000002635609 397.5099999286998C383.66666697646633 397.2974999228044 384.3333336616285 401.6625000439037 386.0000003745339 401.65000004355693C387.66666708743935 401.63750004321014 388.3333337726015 397.5124999287692 390.0000004855069 397.44999992703526C391.66666719841237 397.3874999253013 392.33333388357454 401.1125000286449 394.00000059647994 401.35000003523396C395.6666673093854 401.587500041823 396.33333399454756 398.4774999555414 398.00000070745295 398.58999995866253C399.6666674203584 398.7024999617837 400.3333341055206 401.81500004813455 402.000000818426 401.8900000502153C403.6666675313314 401.96500005229603 404.33333421649354 398.91249996760973 406.000000929399 398.9499999686501C407.66666764230445 398.9874999696905 408.33333432746656 402.2200000593706 410.000001040372 402.0700000552091C411.66666775327747 401.92000005104757 412.3333344384396 398.167499946941 414.00000115134503 398.22999994867496C415.6666678642505 398.2924999504089 416.3333345494126 402.55750006873393 418.00000126231805 402.3700000635321C419.66666797522345 402.1825000583302 421.16666801683834 398.37999995283644 422.00000137329107 397.32999992370605 " transform="rotate(6, 400, 400)"></path><path d="M389.00000007629393 401.33500098960184C389.4166667545203 400.79750097468985 390.1666667753277 398.86125092097194 391.00000013178044 398.7550009180242C391.83333348823317 398.6487509150765 392.1666668308143 400.8312509756262 393.00000018726695 400.8250009754528C393.8333335437197 400.8187509752794 394.16666688630073 398.7562509180589 395.00000024275346 398.72500091719195C395.8333335992062 398.693750916325 396.1666669417873 400.5562509679968 397.00000029823997 400.6750009712913C397.8333336546927 400.7937509745858 398.16666699727375 399.23875093144505 399.0000003537265 399.2950009330056C399.8333337101792 399.35125093456617 400.16666705276026 400.9075009777416 401.000000409213 400.945000978782C401.8333337656657 400.98250097982236 402.16666710824677 399.4562509374792 403.0000004646995 399.47500093799937C403.8333338211522 399.49375093851955 404.1666671637333 401.1100009833596 405.000000520186 401.03500098127887C405.83333387663873 400.9600009791981 406.1666672192198 399.0837509271448 407.0000005756725 399.1150009280118C407.83333393212524 399.14625092887877 408.1666672747063 401.2787509880413 409.000000631159 401.18500098544035C409.8333339876117 401.0912509828394 410.5833340084192 399.19000093009254 411.00000068664554 398.66500091552734 " transform="rotate(3, 400, 400)"></path></g></svg>